<?xml version="1.0" standalone="no"?>
<!DOCTYPE svg PUBLIC "-//W3C//DTD SVG 20010904//EN"
 "http://www.w3.org/TR/2001/REC-SVG-20010904/DTD/svg10.dtd">
<svg version="1.0" xmlns="http://www.w3.org/2000/svg"
 width="424.000000pt" height="424.000000pt" viewBox="0 0 424.000000 424.000000"
 preserveAspectRatio="xMidYMid meet">
<metadata>
Created by potrace 1.14, written by Peter Selinger 2001-2017
</metadata>
<g transform="translate(0.000000,424.000000) scale(0.100000,-0.100000)"
fill="#000000" stroke="none">
<path d="M1455 4050 c-49 -3 -100 -12 -112 -19 -34 -17 -31 -62 5 -88 55 -41
205 -188 228 -224 36 -57 47 -113 39 -202 l-7 -79 -72 6 c-222 22 -299 76
-407 287 -54 105 -68 124 -89 127 -42 5 -65 -26 -128 -169 -92 -210 -116 -289
-117 -389 0 -78 3 -89 31 -135 32 -52 104 -114 165 -141 l35 -16 -64 -62
c-167 -160 -245 -322 -288 -596 -8 -52 -19 -214 -25 -358 -11 -293 -10 -304
51 -317 32 -7 36 -18 21 -58 -13 -33 -46 -63 -99 -88 -24 -12 -46 -28 -49 -35
-6 -17 42 -122 70 -153 31 -34 131 -79 192 -86 51 -7 73 -1 158 43 4 2 7 -52
7 -120 0 -105 4 -133 25 -193 46 -130 134 -224 305 -326 213 -126 554 -198
890 -186 393 14 673 101 897 279 77 61 114 107 156 195 30 65 32 75 35 206 2
75 6 137 7 137 2 0 24 -13 48 -30 52 -35 133 -55 193 -46 68 9 172 56 238 106
34 26 72 53 85 60 l25 13 -24 19 c-19 15 -33 18 -61 14 -35 -6 -40 -3 -96 58
-70 74 -98 127 -118 222 -22 102 -20 141 8 156 35 19 162 14 250 -11 43 -12
88 -21 100 -19 18 3 11 11 -43 54 -77 61 -224 257 -270 358 -17 36 -51 137
-76 223 -105 360 -192 532 -337 670 -114 108 -240 164 -461 203 -60 11 -111
20 -113 20 -3 0 5 13 17 30 26 37 90 75 152 90 55 14 83 40 73 69 -8 25 -126
91 -286 160 -251 108 -377 93 -490 -56 l-46 -61 -23 82 c-65 238 -179 351
-380 376 -46 5 -96 9 -110 8 -14 0 -65 -4 -115 -8z m295 -111 c31 -9 62 -30
100 -69 65 -64 96 -134 137 -305 25 -104 43 -145 66 -145 23 0 76 46 92 80 55
116 133 180 218 180 70 0 256 -65 335 -116 l24 -15 -56 -42 c-85 -64 -147
-167 -126 -208 11 -19 28 -24 138 -39 252 -35 395 -94 512 -211 112 -112 187
-268 289 -603 64 -208 124 -338 185 -404 25 -27 46 -54 46 -61 0 -6 -16 -11
-37 -11 -49 0 -115 -19 -232 -64 -51 -20 -99 -36 -107 -36 -12 0 -14 45 -14
269 0 241 -2 276 -20 334 -46 147 -165 269 -365 370 -141 72 -460 161 -477
134 -15 -23 -8 -64 17 -101 77 -114 73 -162 -20 -236 -47 -37 -228 -126 -335
-165 -143 -51 -298 -85 -387 -85 -46 0 -83 2 -83 4 0 2 7 21 16 42 20 47 20
50 45 214 23 161 34 196 67 227 22 20 24 27 16 55 -14 48 -45 47 -209 -7 -352
-116 -549 -287 -585 -506 -5 -35 -10 -145 -10 -245 l0 -181 -114 -92 c-63 -50
-120 -91 -127 -91 -18 0 -4 363 20 520 52 333 162 500 458 700 160 108 171
121 137 155 -24 24 -52 13 -156 -56 l-90 -61 -64 32 c-84 43 -140 92 -155 137
-24 72 1 183 83 371 33 75 43 90 54 81 8 -6 14 -15 14 -20 0 -14 70 -126 106
-168 93 -108 272 -161 546 -161 84 0 110 3 122 16 37 36 3 74 -67 74 l-49 0 7
75 c13 146 -26 247 -141 366 -41 41 -71 79 -67 83 11 12 191 0 243 -15z m1045
-1160 c186 -72 341 -198 384 -314 20 -53 21 -75 21 -445 l0 -389 -125 44
c-146 52 -390 117 -521 140 -348 59 -690 13 -1236 -167 -103 -34 -191 -59
-195 -54 -4 4 -8 193 -8 420 l0 411 33 67 c43 87 136 173 252 232 86 44 208
92 214 85 6 -6 -33 -260 -45 -297 -15 -46 -35 -62 -79 -62 -66 0 -93 -55 -47
-97 35 -33 162 -73 249 -80 43 -3 78 -8 78 -10 0 -3 -9 -17 -20 -33 -22 -31
-50 -129 -50 -175 0 -42 25 -131 46 -163 25 -39 45 -51 80 -52 64 0 116 95
117 215 1 79 -14 135 -49 181 -27 37 -20 47 36 59 121 25 386 128 515 199 155
87 233 211 195 311 -10 26 -9 26 22 20 18 -4 78 -25 133 -46z m-1832 -1376
c-40 -34 -99 -63 -125 -63 -28 0 -113 41 -148 70 l-25 21 25 17 c14 9 46 37
71 62 49 47 46 39 85 228 5 23 16 35 94 96 l45 36 3 -222 2 -222 -27 -23z
m2540 316 c21 -126 59 -209 134 -289 32 -35 52 -65 47 -69 -19 -18 -127 -51
-165 -51 -47 0 -98 24 -156 75 l-43 37 0 173 0 174 78 25 c42 14 80 25 83 26
3 0 13 -45 22 -101z m-1123 -144 c232 -54 376 -171 411 -334 9 -41 7 -61 -6
-108 -39 -133 -151 -231 -335 -294 -91 -31 -102 -33 -245 -33 -136 1 -158 3
-235 28 -157 51 -282 142 -330 241 -32 64 -35 180 -6 237 60 122 211 223 391
263 83 19 275 18 355 0z"/>
<path d="M2642 2342 c-33 -13 -53 -30 -80 -71 -51 -75 -81 -95 -140 -94 -27 0
-59 4 -70 7 -35 11 -27 -21 13 -58 32 -30 35 -37 35 -91 0 -145 75 -226 153
-165 35 28 53 92 67 245 15 150 20 168 63 213 35 36 25 40 -41 14z"/>
<path d="M2119 1520 c-102 -18 -152 -63 -113 -100 20 -19 105 -50 137 -50 17
0 19 -5 12 -47 -11 -77 -43 -167 -72 -206 -29 -38 -133 -97 -171 -97 -27 0
-37 -17 -22 -35 17 -20 102 -19 169 1 62 18 121 68 146 124 21 46 30 50 39 14
11 -44 85 -108 148 -128 97 -30 148 -21 148 28 0 18 -6 21 -48 22 -71 1 -115
31 -140 97 -24 59 -37 111 -47 180 -5 40 -4 48 12 53 49 17 102 47 107 61 22
57 -167 108 -305 83z"/>
</g>
</svg>
