<?xml version="1.0" standalone="no"?>
<!DOCTYPE svg PUBLIC "-//W3C//DTD SVG 20010904//EN"
 "http://www.w3.org/TR/2001/REC-SVG-20010904/DTD/svg10.dtd">
<svg version="1.0" xmlns="http://www.w3.org/2000/svg"
 width="424.000000pt" height="424.000000pt" viewBox="0 0 424.000000 424.000000"
 preserveAspectRatio="xMidYMid meet">
<metadata>
Created by potrace 1.14, written by Peter Selinger 2001-2017
</metadata>
<g transform="translate(0.000000,424.000000) scale(0.100000,-0.100000)"
fill="#000000" stroke="none">
<path d="M1517 4054 c-1 -1 -36 -4 -77 -7 -90 -6 -104 -11 -118 -42 -10 -22
-7 -29 35 -67 25 -24 57 -53 70 -65 13 -13 28 -23 33 -23 4 0 10 -4 12 -9 2
-5 24 -32 50 -59 55 -58 84 -107 92 -152 2 -17 7 -34 10 -37 2 -3 1 -15 -4
-28 -5 -14 -5 -26 3 -34 7 -7 7 -11 1 -11 -6 0 -11 -17 -12 -37 -2 -36 -17
-57 -35 -46 -5 3 -33 7 -61 9 -66 5 -84 9 -92 17 -4 4 -17 7 -29 7 -50 0 -147
69 -205 145 -15 20 -75 139 -101 203 -31 72 -98 55 -136 -36 -8 -20 -27 -62
-41 -92 -14 -30 -24 -56 -21 -56 2 -1 -4 -11 -14 -21 -9 -11 -14 -23 -11 -26
4 -4 2 -12 -3 -19 -12 -15 -38 -90 -35 -100 1 -5 -2 -8 -6 -8 -7 0 -13 -27
-15 -72 -1 -10 -4 -18 -8 -18 -7 0 -4 -124 5 -159 3 -13 13 -32 22 -42 10 -11
14 -19 10 -19 -3 0 8 -16 26 -35 32 -36 130 -98 154 -98 9 0 7 -7 -4 -23 -9
-12 -19 -21 -22 -20 -3 1 -24 -18 -46 -41 -23 -24 -40 -43 -37 -43 2 0 -6 -11
-19 -24 -30 -31 -54 -60 -54 -66 0 -3 -14 -26 -32 -53 -18 -26 -30 -52 -27
-57 3 -6 2 -10 -3 -10 -8 0 -31 -43 -39 -75 -2 -5 -12 -44 -24 -85 -22 -82
-24 -90 -34 -170 -3 -30 -8 -61 -10 -68 -7 -20 -17 -235 -19 -407 -2 -151 -1
-159 20 -182 13 -14 25 -24 28 -24 27 3 36 -2 36 -21 0 -36 -40 -83 -99 -115
-62 -34 -69 -50 -40 -104 10 -19 22 -43 28 -54 14 -29 62 -71 91 -80 14 -4 30
-12 37 -17 6 -5 40 -15 75 -22 63 -13 90 -8 110 19 4 6 8 6 8 1 0 -4 12 -1 26
9 14 9 27 15 30 13 4 -4 5 -53 2 -78 -1 -9 2 -28 6 -44 4 -15 3 -25 -1 -23 -5
3 -8 -7 -7 -21 1 -15 3 -27 4 -27 1 0 3 -16 4 -35 4 -54 48 -169 79 -206 24
-29 115 -119 130 -129 8 -5 35 -24 58 -40 54 -38 190 -105 213 -105 9 0 16 -5
16 -10 0 -6 6 -10 13 -9 6 1 25 -3 41 -10 16 -6 39 -13 50 -14 12 -1 24 -6 27
-10 3 -4 21 -9 41 -11 19 -2 39 -5 44 -8 5 -3 41 -11 79 -16 39 -6 88 -14 110
-18 49 -8 448 -10 490 -2 17 3 53 9 80 12 41 6 189 37 230 49 34 10 92 31 100
36 6 3 13 6 18 7 4 1 8 2 10 4 1 1 10 3 21 5 27 5 146 68 146 77 0 4 9 8 19 8
10 0 22 7 25 16 4 9 9 14 13 10 3 -3 12 3 20 14 8 11 19 20 25 20 18 0 138
131 153 167 8 18 15 37 15 41 1 4 8 17 16 30 8 12 12 22 9 22 -3 0 -1 9 5 20
6 11 11 76 12 145 1 69 3 125 5 125 5 0 67 -43 73 -51 9 -10 62 -21 124 -24
59 -3 93 4 156 33 19 9 37 17 40 17 16 4 76 45 106 73 20 17 42 32 50 32 8 0
14 5 14 11 0 5 5 7 10 4 12 -8 13 5 1 24 -5 8 -29 14 -60 15 -38 1 -58 8 -80
26 -17 14 -30 28 -31 32 0 4 -13 21 -30 39 -56 62 -91 162 -95 276 -3 55 -1
63 18 69 49 15 149 10 239 -13 128 -32 143 -30 93 10 -72 58 -209 214 -210
239 0 3 -9 17 -20 30 -27 34 -43 59 -55 88 -6 14 -15 34 -20 45 -13 27 -64
188 -80 253 -8 28 -18 52 -22 52 -5 0 -7 4 -4 9 6 9 -45 164 -56 169 -5 2 -8
10 -8 19 0 17 -63 151 -95 203 -12 19 -23 38 -24 42 -2 7 -38 51 -81 97 -46
50 -133 112 -205 146 -98 47 -289 95 -387 99 -20 0 -19 16 4 37 10 9 16 18 13
20 -2 3 12 14 33 24 20 11 39 22 42 25 7 7 31 13 53 14 9 0 17 4 17 8 0 4 3 7
8 7 36 -6 70 38 53 69 -11 20 -272 155 -323 168 -16 3 -28 11 -28 17 0 6 -3 8
-6 4 -3 -3 -18 -1 -33 5 -42 17 -71 21 -157 22 -65 1 -86 -3 -101 -17 -11 -9
-22 -15 -25 -12 -7 7 -122 -107 -126 -126 -8 -36 -20 -24 -37 38 -10 37 -22
74 -28 81 -5 6 -6 12 -3 12 4 0 1 10 -6 23 -7 12 -13 24 -13 27 -4 16 -27 65
-33 70 -4 3 -18 22 -32 42 -14 21 -28 38 -31 38 -3 0 -19 12 -35 26 -28 24
-62 42 -94 49 -8 2 -15 4 -15 6 0 2 -12 4 -75 14 -37 6 -178 13 -183 9z"/>
</g>
</svg>
